<?xml version="1.0" standalone="no"?>
<!DOCTYPE svg PUBLIC "-//W3C//DTD SVG 20010904//EN"
 "http://www.w3.org/TR/2001/REC-SVG-20010904/DTD/svg10.dtd">
<svg version="1.0" xmlns="http://www.w3.org/2000/svg"
 width="1024.000000pt" height="1024.000000pt" viewBox="0 0 1024.000000 1024.000000"
 preserveAspectRatio="xMidYMid meet">

<g transform="translate(0.000000,1024.000000) scale(0.100000,-0.100000)"
fill="#000000" stroke="none">
<path d="M4845 9244 c-362 -39 -496 -60 -721 -115 -471 -114 -912 -306 -1319
-574 -512 -337 -897 -724 -1252 -1255 -367 -550 -603 -1234 -653 -1895 -14
-176 -14 -535 0 -691 88 -1024 491 -1883 1221 -2600 348 -341 682 -578 1104
-784 396 -192 792 -319 1192 -380 298 -45 402 -54 688 -54 258 0 299 3 520 32
702 92 1284 308 1850 684 300 200 636 493 846 738 543 635 843 1293 963 2110
41 282 53 723 27 995 -74 777 -346 1465 -831 2110 -124 164 -229 282 -416 466
-192 188 -373 336 -584 478 -603 406 -1168 620 -1880 711 -123 16 -234 22
-440 25 -151 2 -293 1 -315 -1z m695 -208 c503 -60 927 -184 1339 -390 501
-252 918 -571 1280 -981 455 -515 775 -1154 906 -1810 59 -293 70 -419 69
-790 0 -370 -14 -517 -79 -840 -195 -971 -746 -1796 -1609 -2408 -916 -649
-2109 -887 -3219 -641 -461 102 -907 286 -1312 540 -574 360 -1085 910 -1398
1504 -440 836 -562 1860 -332 2782 183 731 567 1387 1135 1934 586 565 1350
944 2160 1073 108 17 198 28 365 45 94 9 568 -3 695 -18z"/>
<path d="M4860 8649 c-173 -13 -465 -41 -468 -44 -2 -2 -1 -53 3 -114 l8 -111
29 0 c16 0 72 5 124 11 53 6 97 9 99 7 2 -2 15 -127 30 -278 15 -151 29 -276
30 -278 3 -4 227 17 232 21 2 3 -7 127 -21 278 -14 150 -23 276 -21 280 3 3
59 10 126 14 l120 7 -5 36 c-3 21 -8 70 -12 110 l-6 72 -82 -1 c-44 -1 -128
-5 -186 -10z"/>
<path d="M5660 8512 c-30 -48 -83 -132 -118 -187 -164 -258 -271 -440 -265
-446 8 -7 186 -39 216 -39 8 0 30 24 48 53 18 28 34 54 35 56 2 1 63 -12 136
-29 134 -33 158 -46 158 -84 0 -12 5 -38 10 -58 10 -36 11 -37 98 -56 48 -11
102 -23 121 -26 l33 -6 -7 45 c-3 25 -33 184 -65 353 -32 169 -64 341 -71 383
l-12 76 -116 27 c-64 14 -123 26 -131 26 -8 0 -40 -40 -70 -88z m151 -304 c7
-43 10 -80 7 -83 -10 -10 -128 17 -128 28 0 21 95 156 101 144 4 -7 13 -47 20
-89z"/>
<path d="M3365 8222 c-121 -42 -227 -137 -264 -237 -70 -187 49 -366 228 -341
24 3 91 29 149 56 120 57 157 63 174 25 27 -60 -78 -129 -202 -132 l-75 -1
-57 -93 c-32 -51 -55 -96 -50 -100 16 -14 106 -29 179 -29 167 1 343 103 413
240 69 136 32 303 -80 360 -89 45 -142 38 -322 -47 -65 -30 -122 -52 -128 -48
-21 13 -11 71 17 99 34 34 119 59 175 51 l43 -5 50 86 c28 47 51 89 53 94 5
14 -114 40 -184 40 -39 -1 -91 -8 -119 -18z"/>
<path d="M6663 8195 c-196 -61 -330 -279 -296 -479 41 -238 291 -408 504 -342
63 19 129 49 129 59 0 6 -85 139 -105 165 -2 2 -30 -2 -63 -9 -56 -12 -62 -11
-108 12 -26 13 -62 41 -78 62 -28 35 -31 46 -31 111 0 62 4 78 27 114 44 66
122 97 202 80 57 -12 128 -74 162 -139 13 -27 28 -49 33 -49 21 0 181 80 181
91 0 22 -62 128 -108 185 -55 66 -150 128 -223 143 -67 15 -174 13 -226 -4z"/>
<path d="M2529 7554 c-62 -22 -133 -77 -192 -149 -78 -97 -222 -299 -222 -312
0 -6 81 -78 180 -158 99 -81 235 -192 303 -247 68 -55 127 -97 131 -92 5 5 36
50 69 100 l60 91 -59 43 c-85 61 -86 64 -58 105 23 34 26 35 64 28 22 -5 72
-8 110 -7 80 0 127 20 186 77 35 34 99 123 99 138 0 4 -24 20 -52 36 -29 16
-63 35 -75 43 -20 13 -24 12 -46 -12 -29 -31 -69 -53 -116 -63 -32 -7 -34 -6
-27 16 4 13 10 57 13 96 5 65 3 78 -21 127 -45 93 -125 145 -234 152 -46 3
-82 -1 -113 -12z m122 -253 c34 -34 38 -75 12 -124 -18 -36 -93 -137 -101
-137 -9 0 -142 111 -142 118 0 4 23 37 51 75 76 101 127 121 180 68z"/>
<path d="M7441 7550 c-111 -41 -191 -115 -247 -226 -119 -238 14 -531 275
-608 107 -31 243 -15 338 41 55 32 144 129 171 186 105 222 9 481 -217 589
-58 28 -78 32 -166 35 -82 3 -110 0 -154 -17z m224 -239 c186 -84 129 -371
-72 -371 -68 0 -110 18 -150 63 -66 75 -68 183 -6 257 56 67 148 88 228 51z"/>
<path d="M4875 7509 c-902 -87 -1698 -655 -2064 -1474 -306 -686 -308 -1436
-4 -2130 203 -465 568 -877 1013 -1145 277 -168 627 -290 954 -335 124 -17
316 -30 316 -21 0 8 -131 289 -191 407 -127 255 -245 427 -390 570 -166 166
-358 270 -624 339 -60 16 -123 23 -255 27 -118 3 -172 2 -165 -5 23 -23 313
-227 480 -337 542 -357 596 -395 685 -485 66 -65 135 -149 128 -155 -7 -8
-259 61 -363 100 -513 189 -941 552 -1198 1015 -51 92 -129 279 -170 406 -177
548 -126 1178 137 1692 384 749 1115 1202 1941 1202 496 0 956 -162 1360 -478
102 -80 289 -273 371 -382 260 -348 419 -766 455 -1203 37 -447 -84 -934 -328
-1330 -82 -132 -162 -234 -280 -357 -302 -316 -695 -539 -1128 -644 -55 -13
-102 -22 -104 -20 -7 6 112 145 167 194 59 52 241 179 572 397 204 135 492
334 540 374 l25 20 -175 -5 c-228 -7 -350 -37 -565 -140 -278 -133 -494 -372
-689 -764 -48 -96 -164 -344 -191 -408 l-15 -37 97 7 c584 41 1081 239 1523
608 259 216 469 485 624 798 174 353 259 687 272 1080 31 855 -380 1675 -1091
2177 -468 331 -1096 497 -1670 442z"/>
<path d="M4843 6990 c-35 -21 -51 -48 -78 -128 l-17 -54 -37 7 c-20 4 -70 20
-111 37 -43 17 -103 32 -140 35 -60 5 -68 3 -97 -21 -36 -30 -49 -64 -58 -155
l-7 -63 -51 6 c-28 4 -87 16 -131 26 -62 15 -89 17 -116 10 -78 -23 -100 -64
-100 -195 0 -52 -3 -95 -7 -95 -66 -2 -269 -33 -292 -45 -62 -32 -76 -106 -42
-233 l19 -72 -72 0 c-87 0 -128 -21 -146 -75 -13 -39 -8 -97 12 -140 l11 -25
349 0 c191 0 348 -1 348 -3 0 -1 -50 -53 -111 -116 -105 -108 -111 -112 -137
-102 -96 38 -196 32 -290 -19 l-53 -29 -36 24 c-88 60 -193 34 -193 -47 0 -18
12 -53 25 -77 14 -24 24 -45 23 -46 -2 -1 -19 -10 -38 -20 -55 -27 -100 -65
-111 -91 -13 -35 8 -77 70 -144 l51 -55 -59 -20 c-96 -33 -115 -60 -105 -151
l7 -54 166 0 166 0 -3 171 c-3 197 7 244 64 303 53 54 90 70 162 70 85 -1 92
-10 53 -78 -63 -110 -109 -304 -99 -421 l3 -40 224 -5 225 -5 -62 -53 c-33
-29 -84 -81 -112 -116 l-51 -63 -42 20 c-91 43 -235 29 -322 -32 l-40 -29 -35
24 c-50 35 -127 34 -169 -2 -47 -40 -41 -85 22 -151 l30 -32 -19 -63 c-40
-133 -16 -257 72 -364 32 -39 79 -74 99 -74 3 0 5 82 3 183 l-3 182 30 55 c45
83 131 129 214 115 62 -10 64 -16 31 -76 -54 -98 -81 -201 -87 -335 l-6 -121
1473 0 1473 0 -6 121 c-6 135 -29 232 -78 328 -37 73 -31 82 49 83 83 0 146
-40 186 -118 l29 -57 -2 -180 c-1 -123 2 -180 9 -180 25 0 112 96 142 158 29
58 33 75 33 151 0 57 -6 104 -18 140 l-18 54 29 31 c38 40 52 68 52 104 0 76
-121 102 -201 43 l-28 -21 -43 29 c-93 63 -228 77 -314 33 l-40 -20 -70 77
c-38 42 -90 95 -116 116 l-47 40 229 3 230 2 0 78 c0 108 -30 241 -79 348 -22
51 -41 96 -41 102 0 5 20 13 45 17 69 10 135 -16 184 -71 61 -70 71 -111 71
-306 l0 -168 159 0 c136 0 160 2 165 16 10 26 7 114 -5 135 -11 22 -102 69
-131 69 -19 0 -25 26 -8 32 5 2 32 30 60 63 64 76 67 108 11 158 -21 19 -55
40 -75 47 -21 7 -35 17 -32 24 2 6 15 35 27 63 27 61 20 99 -21 121 -38 20
-113 10 -154 -21 l-34 -27 -61 32 c-83 43 -203 51 -274 20 -26 -12 -47 -17
-47 -12 0 5 -48 58 -106 119 l-106 111 345 0 345 0 17 45 c24 61 16 129 -19
164 -23 23 -36 26 -106 29 -44 2 -80 8 -80 13 0 4 7 34 15 66 18 69 19 149 2
182 -20 40 -67 60 -178 76 -57 8 -121 20 -141 25 l-38 11 0 72 c0 92 -13 136
-49 171 -38 37 -93 43 -196 23 -44 -9 -96 -17 -115 -19 l-35 -3 -6 66 c-6 79
-32 127 -79 152 -45 23 -98 16 -210 -29 -95 -38 -160 -53 -160 -36 0 25 -43
125 -66 152 -33 39 -80 47 -129 24 -34 -16 -55 -40 -138 -158 -12 -18 -15 -16
-45 30 -83 130 -156 169 -229 124z m345 -617 l-3 -228 -75 0 -75 0 -3 228 -2
227 80 0 80 0 -2 -227z m-454 145 c15 -36 121 -340 130 -374 6 -18 0 -22 -59
-33 -36 -7 -67 -12 -69 -10 -1 2 -39 83 -83 179 -78 169 -99 220 -90 220 2 0
35 11 73 25 38 13 73 24 77 25 4 0 14 -15 21 -32z m852 7 c38 -14 70 -25 71
-25 10 0 -6 -41 -69 -178 -97 -211 -106 -225 -132 -218 -12 4 -40 9 -63 12
-24 4 -43 11 -43 16 0 8 25 83 122 361 11 31 26 57 32 57 7 0 44 -11 82 -25z
m-1204 -277 c62 -73 125 -149 140 -169 l27 -36 -75 -33 -74 -32 -19 24 c-11
13 -67 85 -125 158 -58 74 -106 137 -106 140 1 9 95 79 107 80 7 0 63 -60 125
-132z m1636 97 c33 -23 50 -40 46 -48 -6 -11 -185 -248 -224 -298 -15 -19 -17
-19 -88 13 -40 18 -71 39 -70 45 5 20 259 323 272 323 6 0 35 -16 64 -35z
m-2013 -257 l66 -73 -71 -3 c-39 -2 -100 -2 -136 0 l-65 3 63 72 c35 39 66 72
70 72 3 1 36 -32 73 -71z m2348 -1 c33 -37 58 -70 55 -72 -3 -3 -64 -4 -136
-3 l-132 3 63 72 c34 40 68 71 76 70 8 -1 41 -32 74 -70z m-953 -171 c458
-102 818 -387 941 -745 11 -30 19 -65 19 -78 0 -22 -4 -23 -62 -23 l-63 0 -23
53 c-12 28 -26 58 -31 65 -6 10 -44 -10 -153 -82 -80 -53 -150 -96 -156 -96
-9 0 -111 60 -131 76 -11 9 47 55 187 147 83 56 152 105 152 109 0 11 -185
198 -196 198 -5 0 -14 -8 -20 -17 -6 -10 -55 -85 -108 -167 l-96 -148 45 -29
c25 -16 45 -31 45 -33 0 -3 -16 -16 -36 -30 l-36 -24 -86 29 c-152 51 -288 73
-467 73 -194 1 -351 -25 -528 -86 l-59 -20 -31 30 c-34 35 -29 50 24 72 18 8
28 18 25 26 -6 16 -194 294 -212 313 -11 12 -27 0 -109 -81 -52 -52 -95 -99
-95 -104 0 -5 61 -49 135 -98 141 -94 205 -142 205 -155 0 -16 -123 -81 -141
-76 -10 4 -80 47 -155 97 -105 69 -138 87 -145 77 -5 -8 -19 -38 -31 -66 l-23
-53 -68 0 -67 0 6 28 c24 100 99 247 179 352 194 253 522 430 900 484 73 10
393 -2 465 -18z m-10 -947 c353 -72 675 -275 843 -530 65 -98 115 -209 124
-274 l6 -45 -67 0 -67 0 -26 60 c-14 33 -30 60 -34 60 -5 0 -85 -51 -177 -113
-92 -62 -184 -123 -205 -136 l-38 -23 -67 64 c-162 156 -372 229 -621 215
-120 -7 -246 -39 -344 -88 -77 -40 -117 -68 -188 -137 -52 -50 -58 -53 -80
-41 -13 6 -110 70 -216 140 l-192 128 -32 -64 -31 -64 -64 2 c-44 1 -64 6 -64
15 0 28 44 141 82 211 138 251 344 425 644 544 98 39 257 81 369 96 107 15
324 5 445 -20z"/>
<path d="M4971 5771 c-12 -8 -9 -36 24 -183 58 -264 46 -238 114 -238 55 0 59
2 65 26 37 147 86 380 82 391 -4 10 -36 13 -138 13 -73 0 -139 -4 -147 -9z"/>
<path d="M4665 5706 c-75 -27 -150 -60 -163 -71 -2 -1 46 -77 105 -168 59 -91
113 -172 118 -181 9 -14 18 -13 83 11 39 14 72 31 72 37 0 6 -16 67 -35 136
-19 69 -43 156 -53 194 -10 39 -23 71 -28 72 -5 2 -49 -12 -99 -30z"/>
<path d="M5428 5678 c-8 -35 -32 -128 -52 -206 -21 -79 -36 -146 -34 -148 3
-2 37 -14 76 -27 l72 -24 47 76 c26 42 78 123 115 181 68 104 68 104 46 117
-36 19 -225 93 -240 93 -9 0 -20 -23 -30 -62z"/>
<path d="M4987 4833 c-32 -4 -36 -7 -32 -26 71 -313 88 -383 94 -390 5 -4 34
-7 67 -5 l58 3 42 180 c23 99 45 192 49 206 6 25 4 26 -41 33 -48 6 -169 6
-237 -1z"/>
<path d="M4670 4761 c-106 -40 -170 -70 -170 -81 0 -8 201 -321 220 -343 11
-13 150 43 150 60 0 13 -35 149 -87 341 -8 28 -20 52 -26 52 -7 -1 -46 -14
-87 -29z"/>
<path d="M5440 4774 c0 -11 -18 -85 -40 -167 -22 -81 -43 -164 -46 -185 l-6
-37 59 -21 c32 -12 65 -24 73 -28 10 -4 22 5 36 26 137 209 197 304 198 317 1
16 -175 95 -239 107 -30 5 -35 3 -35 -12z"/>
<path d="M4226 4490 c-47 -49 -86 -95 -86 -102 1 -21 317 -221 333 -211 8 4
32 24 55 43 l40 35 -60 80 c-33 44 -85 117 -116 163 -30 45 -60 82 -67 82 -7
0 -51 -40 -99 -90z"/>
<path d="M5809 4478 c-40 -57 -90 -127 -111 -157 -21 -30 -38 -59 -38 -65 0
-7 22 -28 50 -49 l49 -37 161 105 c88 58 160 109 160 115 0 15 -173 190 -187
190 -7 0 -45 -46 -84 -102z"/>
<path d="M1866 6712 c-6 -10 -190 -444 -252 -596 -25 -59 -43 -110 -41 -112 8
-8 189 -84 200 -84 7 0 31 49 55 108 24 60 47 114 51 120 9 15 152 -45 410
-172 41 -20 80 -36 86 -36 7 0 33 50 57 110 l46 111 -28 14 c-15 8 -125 59
-246 115 -120 55 -219 102 -221 104 -2 1 15 44 37 95 21 51 42 101 45 111 5
14 -9 26 -67 58 -87 48 -126 64 -132 54z"/>
<path d="M8162 6599 c-106 -54 -137 -170 -91 -349 24 -93 21 -135 -11 -145
-71 -23 -120 81 -120 255 l0 80 -28 0 c-16 0 -55 -5 -88 -10 -114 -20 -104
-11 -104 -95 0 -214 95 -394 243 -460 110 -50 224 -31 294 48 58 66 68 162 31
303 -27 102 -20 139 27 139 22 0 35 -8 51 -32 23 -35 44 -130 44 -204 0 -74 5
-77 107 -56 48 10 91 24 95 30 10 16 0 148 -18 219 -29 121 -102 223 -191 268
-69 35 -181 39 -241 9z"/>
<path d="M2142 5517 c-28 -30 -30 -97 -4 -120 34 -31 75 -32 110 -2 39 32 43
79 11 119 -27 35 -86 36 -117 3z"/>
<path d="M7981 5514 c-40 -51 -19 -126 38 -139 64 -14 123 52 100 112 -14 37
-38 52 -81 53 -28 0 -41 -6 -57 -26z"/>
<path d="M1740 5290 l-54 -130 -138 0 c-77 0 -138 -4 -138 -9 0 -8 59 -60 203
-182 5 -4 -8 -66 -28 -139 -20 -72 -34 -134 -31 -137 3 -3 43 16 88 42 46 27
99 58 119 69 l35 19 110 -66 c61 -37 114 -67 119 -67 10 0 -1 52 -36 173 -26
91 -27 103 -13 114 58 43 204 168 204 175 0 4 -65 8 -144 8 l-143 0 -6 29 c-8
40 -80 231 -87 231 -3 0 -30 -58 -60 -130z"/>
<path d="M8385 5344 c-16 -43 -37 -103 -47 -131 l-19 -53 -140 0 c-86 0 -139
-4 -139 -10 0 -5 47 -49 105 -97 58 -47 105 -90 105 -94 0 -4 -11 -44 -24 -90
-24 -85 -46 -173 -46 -184 0 -7 102 50 172 97 31 21 61 38 66 38 6 0 60 -30
122 -66 61 -36 114 -63 117 -60 4 3 -8 59 -27 124 -18 64 -35 124 -37 132 -3
10 25 39 79 82 46 36 96 80 112 97 l30 31 -146 0 -145 0 -42 114 c-61 165 -62
165 -96 70z"/>
<path d="M1740 4407 c-64 -32 -89 -130 -50 -194 44 -72 153 -85 213 -25 26 26
31 40 35 91 4 60 4 62 -36 101 -35 36 -45 40 -88 40 -27 0 -60 -6 -74 -13z"/>
<path d="M8309 4381 c-38 -38 -44 -56 -39 -121 6 -84 119 -137 201 -95 43 23
69 71 69 129 0 43 -4 53 -39 87 -36 36 -43 39 -96 39 -53 0 -60 -3 -96 -39z"/>
<path d="M8009 3907 c-93 -26 -140 -83 -209 -252 -22 -54 -40 -102 -40 -107 0
-4 19 -16 43 -25 23 -9 118 -55 211 -101 l170 -84 28 33 c48 58 98 137 114
181 35 95 9 220 -59 286 -65 63 -174 92 -258 69z m119 -177 c36 -22 65 -78 56
-107 -17 -52 -27 -73 -37 -73 -8 0 -175 77 -186 86 -9 8 24 67 51 89 36 30 72
32 116 5z"/>
<path d="M2100 3789 c-74 -45 -172 -104 -217 -131 -46 -27 -83 -54 -83 -59 0
-5 12 -33 26 -61 l26 -51 114 7 c63 3 114 3 114 -1 -1 -8 -129 -115 -159 -132
-10 -7 -6 -21 20 -70 19 -33 40 -61 48 -61 8 0 100 38 205 83 105 46 206 90
224 97 17 7 32 18 32 25 0 25 -51 75 -76 75 -24 0 -24 0 -7 26 16 25 16 27 -1
40 -20 14 -141 44 -180 44 -35 0 -33 12 7 33 17 10 49 33 70 50 l38 33 -30 67
c-17 37 -32 67 -33 67 -2 0 -64 -37 -138 -81z"/>
<path d="M4326 3701 c221 -117 420 -305 570 -536 22 -33 78 -139 125 -235 l87
-175 70 148 c84 175 122 240 215 366 140 190 297 331 482 431 44 23 82 44 84
46 2 2 -385 4 -860 4 l-864 0 91 -49z m604 -116 c6 -99 21 -138 70 -178 86
-73 210 -43 266 65 9 17 18 69 21 119 l6 89 60 0 60 0 -7 -107 c-8 -125 -34
-193 -94 -257 -138 -144 -378 -103 -468 81 -23 47 -29 73 -33 165 -3 60 -4
112 -1 114 2 3 29 4 60 2 l55 -3 5 -90z"/>
<path d="M7659 3300 c-66 -11 -120 -42 -171 -99 -134 -149 -87 -369 97 -453
109 -49 239 -17 327 81 185 206 19 516 -253 471z m85 -174 c121 -51 88 -226
-44 -226 -130 0 -161 193 -37 229 44 13 44 13 81 -3z"/>
<path d="M2352 3126 c-112 -79 -206 -146 -209 -150 -6 -6 131 -189 201 -270
l34 -39 49 39 50 39 -63 81 c-35 45 -64 87 -64 93 0 5 10 16 22 22 19 10 25 8
46 -17 14 -16 40 -46 59 -67 l34 -38 44 32 c25 18 45 34 45 36 0 2 -23 34 -50
70 l-51 67 26 25 27 26 69 -75 c38 -41 69 -78 69 -82 0 -15 23 -8 56 17 18 14
38 25 44 25 6 0 10 7 8 16 -4 21 -221 294 -233 293 -5 0 -101 -64 -213 -143z"/>
<path d="M2866 2797 c-9 -61 -19 -129 -22 -149 -5 -30 -10 -38 -32 -42 -15 -3
-84 -15 -155 -28 -143 -25 -140 -21 -79 -99 42 -55 49 -56 162 -35 41 8 76 13
78 11 2 -2 -1 -38 -7 -80 -16 -110 -17 -107 48 -153 70 -49 62 -60 95 125 l22
128 40 12 c21 6 90 22 152 34 61 13 112 26 112 29 0 3 -24 31 -53 62 l-52 58
-80 -15 c-44 -8 -85 -15 -91 -15 -7 0 -8 23 -1 76 10 86 10 84 -74 155 l-47
39 -16 -113z"/>
<path d="M7057 2726 c-66 -18 -125 -62 -164 -120 -131 -193 -4 -438 227 -439
257 -1 392 308 214 487 -71 71 -180 99 -277 72z m133 -176 c57 -29 75 -106 38
-160 -45 -66 -134 -73 -189 -14 -34 36 -34 112 0 148 39 41 100 51 151 26z"/>
<path d="M3381 2355 c1 -80 0 -147 -2 -148 -2 -1 -61 -32 -131 -67 l-127 -65
47 -47 c25 -27 54 -48 63 -48 9 0 56 18 104 40 48 22 88 40 90 40 2 0 11 -43
20 -95 10 -52 23 -99 29 -104 12 -10 138 -52 142 -48 1 1 -9 63 -22 137 -13
74 -24 142 -24 150 0 10 48 39 134 82 l133 65 -46 38 c-76 62 -78 62 -175 17
l-86 -41 0 47 c0 105 -7 118 -75 157 -35 19 -66 35 -70 35 -3 0 -5 -65 -4
-145z"/>
<path d="M6465 2329 c-60 -33 -131 -70 -157 -82 -26 -12 -48 -25 -48 -30 0 -4
49 -109 109 -233 l110 -225 63 32 c35 17 65 33 67 35 2 2 -13 38 -33 80 -20
42 -35 78 -34 79 2 2 40 21 86 44 l82 41 -26 43 c-15 23 -30 47 -35 53 -6 7
-34 -2 -86 -28 l-78 -38 -13 32 c-16 38 -20 35 108 103 l89 47 -33 52 c-18 28
-39 52 -47 53 -8 1 -63 -25 -124 -58z"/>
<path d="M3940 2028 c-96 -246 -113 -296 -107 -311 5 -12 124 -55 130 -46 8
11 179 471 176 473 -7 5 -119 46 -128 46 -4 0 -36 -73 -71 -162z"/>
<path d="M4423 1963 c-33 -54 -92 -150 -131 -214 -39 -64 -74 -127 -77 -141
-6 -24 -3 -25 66 -38 69 -13 73 -13 85 6 39 58 34 56 109 44 117 -19 113 -17
126 -61 15 -48 26 -55 107 -62 53 -4 62 -3 62 11 0 10 -18 85 -40 167 -22 83
-52 198 -67 257 l-27 107 -61 10 c-34 6 -69 11 -77 11 -9 0 -41 -42 -75 -97z
m121 -167 l13 -56 -36 6 c-20 4 -38 8 -40 10 -3 2 6 27 19 54 13 27 25 48 27
46 3 -2 10 -29 17 -60z"/>
<path d="M5288 1900 l-3 -110 -85 105 -85 105 -62 0 -63 0 0 -229 c0 -126 3
-243 6 -260 l7 -31 68 0 69 0 0 123 1 122 20 -25 c11 -14 54 -66 97 -117 l77
-92 64 0 63 -1 -6 88 c-3 48 -8 143 -11 212 -3 69 -8 146 -11 173 l-6 47 -69
0 -68 0 -3 -110z"/>
<path d="M5894 1835 c-42 -64 31 -133 94 -89 26 18 30 74 6 98 -25 26 -81 20
-100 -9z"/>
</g>
</svg>
