<?xml version="1.0" standalone="no"?>
<!DOCTYPE svg PUBLIC "-//W3C//DTD SVG 20010904//EN"
 "http://www.w3.org/TR/2001/REC-SVG-20010904/DTD/svg10.dtd">
<svg version="1.0" xmlns="http://www.w3.org/2000/svg"
 width="436.000000pt" height="442.000000pt" viewBox="0 0 436.000000 442.000000"
 preserveAspectRatio="xMidYMid meet">

<g transform="translate(0.000000,442.000000) scale(0.100000,-0.100000)"
fill="#000000" stroke="none">
<path d="M1903 4240 c-35 -21 -51 -48 -78 -128 l-17 -54 -37 7 c-20 4 -70 20
-111 37 -43 17 -103 32 -140 35 -60 5 -68 3 -97 -21 -36 -30 -49 -64 -58 -155
l-7 -63 -51 6 c-28 4 -87 16 -131 26 -62 15 -89 17 -116 10 -78 -23 -100 -64
-100 -195 0 -52 -3 -95 -7 -95 -66 -2 -269 -33 -292 -45 -62 -32 -76 -106 -42
-233 l19 -72 -72 0 c-87 0 -128 -21 -146 -75 -13 -39 -8 -97 12 -140 l11 -25
349 0 c191 0 348 -1 348 -3 0 -1 -50 -53 -111 -116 -105 -108 -111 -112 -137
-102 -96 38 -196 32 -290 -19 l-53 -29 -36 24 c-88 60 -193 34 -193 -47 0 -18
12 -53 25 -77 14 -24 24 -45 23 -46 -2 -1 -19 -10 -38 -20 -55 -27 -100 -65
-111 -91 -13 -35 8 -77 70 -144 l51 -55 -59 -20 c-96 -33 -115 -60 -105 -151
l7 -54 166 0 166 0 -3 171 c-3 197 7 244 64 303 53 54 90 70 162 70 85 -1 92
-10 53 -78 -63 -110 -109 -304 -99 -421 l3 -40 224 -5 225 -5 -62 -53 c-33
-29 -84 -81 -112 -116 l-51 -63 -42 20 c-91 43 -235 29 -322 -32 l-40 -29 -35
24 c-50 35 -127 34 -169 -2 -47 -40 -41 -85 22 -151 l30 -32 -19 -63 c-40
-133 -16 -257 72 -364 32 -39 79 -74 99 -74 3 0 5 82 3 183 l-3 182 30 55 c45
83 131 129 214 115 62 -10 64 -16 31 -76 -54 -98 -81 -201 -87 -335 l-6 -121
1473 0 1473 0 -6 121 c-6 135 -29 232 -78 328 -37 73 -31 82 49 83 83 0 146
-40 186 -118 l29 -57 -2 -180 c-1 -123 2 -180 9 -180 25 0 112 96 142 158 29
58 33 75 33 151 0 57 -6 104 -18 140 l-18 54 29 31 c38 40 52 68 52 104 0 76
-121 102 -201 43 l-28 -21 -43 29 c-93 63 -228 77 -314 33 l-40 -20 -70 77
c-38 42 -90 95 -116 116 l-47 40 229 3 230 2 0 78 c0 108 -30 241 -79 348 -22
51 -41 96 -41 102 0 5 20 13 45 17 69 10 135 -16 184 -71 61 -70 71 -111 71
-306 l0 -168 159 0 c136 0 160 2 165 16 10 26 7 114 -5 135 -11 22 -102 69
-131 69 -19 0 -25 26 -8 32 5 2 32 30 60 63 64 76 67 108 11 158 -21 19 -55
40 -75 47 -21 7 -35 17 -32 24 2 6 15 35 27 63 27 61 20 99 -21 121 -38 20
-113 10 -154 -21 l-34 -27 -61 32 c-83 43 -203 51 -274 20 -26 -12 -47 -17
-47 -12 0 5 -48 58 -106 119 l-106 111 345 0 345 0 17 45 c24 61 16 129 -19
164 -23 23 -36 26 -106 29 -44 2 -80 8 -80 13 0 4 7 34 15 66 18 69 19 149 2
182 -20 40 -67 60 -178 76 -57 8 -121 20 -141 25 l-38 11 0 72 c0 92 -13 136
-49 171 -38 37 -93 43 -196 23 -44 -9 -96 -17 -115 -19 l-35 -3 -6 66 c-6 79
-32 127 -79 152 -45 23 -98 16 -210 -29 -95 -38 -160 -53 -160 -36 0 25 -43
125 -66 152 -33 39 -80 47 -129 24 -34 -16 -55 -40 -138 -158 -12 -18 -15 -16
-45 30 -83 130 -156 169 -229 124z m345 -617 l-3 -228 -75 0 -75 0 -3 228 -2
227 80 0 80 0 -2 -227z m-454 145 c15 -36 121 -340 130 -374 6 -18 0 -22 -59
-33 -36 -7 -67 -12 -69 -10 -1 2 -39 83 -83 179 -78 169 -99 220 -90 220 2 0
35 11 73 25 38 13 73 24 77 25 4 0 14 -15 21 -32z m852 7 c38 -14 70 -25 71
-25 10 0 -6 -41 -69 -178 -97 -211 -106 -225 -132 -218 -12 4 -40 9 -63 12
-24 4 -43 11 -43 16 0 8 25 83 122 361 11 31 26 57 32 57 7 0 44 -11 82 -25z
m-1204 -277 c62 -73 125 -149 140 -169 l27 -36 -75 -33 -74 -32 -19 24 c-11
13 -67 85 -125 158 -58 74 -106 137 -106 140 1 9 95 79 107 80 7 0 63 -60 125
-132z m1636 97 c33 -23 50 -40 46 -48 -6 -11 -185 -248 -224 -298 -15 -19 -17
-19 -88 13 -40 18 -71 39 -70 45 5 20 259 323 272 323 6 0 35 -16 64 -35z
m-2013 -257 l66 -73 -71 -3 c-39 -2 -100 -2 -136 0 l-65 3 63 72 c35 39 66 72
70 72 3 1 36 -32 73 -71z m2348 -1 c33 -37 58 -70 55 -72 -3 -3 -64 -4 -136
-3 l-132 3 63 72 c34 40 68 71 76 70 8 -1 41 -32 74 -70z m-953 -171 c458
-102 818 -387 941 -745 11 -30 19 -65 19 -78 0 -22 -4 -23 -62 -23 l-63 0 -23
53 c-12 28 -26 58 -31 65 -6 10 -44 -10 -153 -82 -80 -53 -150 -96 -156 -96
-9 0 -111 60 -131 76 -11 9 47 55 187 147 83 56 152 105 152 109 0 11 -185
198 -196 198 -5 0 -14 -8 -20 -17 -6 -10 -55 -85 -108 -167 l-96 -148 45 -29
c25 -16 45 -31 45 -33 0 -3 -16 -16 -36 -30 l-36 -24 -86 29 c-152 51 -288 73
-467 73 -194 1 -351 -25 -528 -86 l-59 -20 -31 30 c-34 35 -29 50 24 72 18 8
28 18 25 26 -6 16 -194 294 -212 313 -11 12 -27 0 -109 -81 -52 -52 -95 -99
-95 -104 0 -5 61 -49 135 -98 141 -94 205 -142 205 -155 0 -16 -123 -81 -141
-76 -10 4 -80 47 -155 97 -105 69 -138 87 -145 77 -5 -8 -19 -38 -31 -66 l-23
-53 -68 0 -67 0 6 28 c24 100 99 247 179 352 194 253 522 430 900 484 73 10
393 -2 465 -18z m-10 -947 c353 -72 675 -275 843 -530 65 -98 115 -209 124
-274 l6 -45 -67 0 -67 0 -26 60 c-14 33 -30 60 -34 60 -5 0 -85 -51 -177 -113
-92 -62 -184 -123 -205 -136 l-38 -23 -67 64 c-162 156 -372 229 -621 215
-120 -7 -246 -39 -344 -88 -77 -40 -117 -68 -188 -137 -52 -50 -58 -53 -80
-41 -13 6 -110 70 -216 140 l-192 128 -32 -64 -31 -64 -64 2 c-44 1 -64 6 -64
15 0 28 44 141 82 211 138 251 344 425 644 544 98 39 257 81 369 96 107 15
324 5 445 -20z"/>
<path d="M2031 3021 c-12 -8 -9 -36 24 -183 58 -264 46 -238 114 -238 55 0 59
2 65 26 37 147 86 380 82 391 -4 10 -36 13 -138 13 -73 0 -139 -4 -147 -9z"/>
<path d="M1725 2956 c-75 -27 -150 -60 -163 -71 -2 -1 46 -77 105 -168 59 -91
113 -172 118 -181 9 -14 18 -13 83 11 39 14 72 31 72 37 0 6 -16 67 -35 136
-19 69 -43 156 -53 194 -10 39 -23 71 -28 72 -5 2 -49 -12 -99 -30z"/>
<path d="M2488 2928 c-8 -35 -32 -128 -52 -206 -21 -79 -36 -146 -34 -148 3
-2 37 -14 76 -27 l72 -24 47 76 c26 42 78 123 115 181 68 104 68 104 46 117
-36 19 -225 93 -240 93 -9 0 -20 -23 -30 -62z"/>
<path d="M2047 2083 c-32 -4 -36 -7 -32 -26 71 -313 88 -383 94 -390 5 -4 34
-7 67 -5 l58 3 42 180 c23 99 45 192 49 206 6 25 4 26 -41 33 -48 6 -169 6
-237 -1z"/>
<path d="M1730 2011 c-106 -40 -170 -70 -170 -81 0 -8 201 -321 220 -343 11
-13 150 43 150 60 0 13 -35 149 -87 341 -8 28 -20 52 -26 52 -7 -1 -46 -14
-87 -29z"/>
<path d="M2500 2024 c0 -11 -18 -85 -40 -167 -22 -81 -43 -164 -46 -185 l-6
-37 59 -21 c32 -12 65 -24 73 -28 10 -4 22 5 36 26 137 209 197 304 198 317 1
16 -175 95 -239 107 -30 5 -35 3 -35 -12z"/>
<path d="M1286 1740 c-47 -49 -86 -95 -86 -102 1 -21 317 -221 333 -211 8 4
32 24 55 43 l40 35 -60 80 c-33 44 -85 117 -116 163 -30 45 -60 82 -67 82 -7
0 -51 -40 -99 -90z"/>
<path d="M2869 1728 c-40 -57 -90 -127 -111 -157 -21 -30 -38 -59 -38 -65 0
-7 22 -28 50 -49 l49 -37 161 105 c88 58 160 109 160 115 0 15 -173 190 -187
190 -7 0 -45 -46 -84 -102z"/>
<path d="M4070 3300 c6 -11 13 -20 16 -20 2 0 0 9 -6 20 -6 11 -13 20 -16 20
-2 0 0 -9 6 -20z"/>
<path d="M4151 3145 c0 -5 6 -21 14 -35 8 -14 14 -20 14 -15 0 6 -6 21 -14 35
-8 14 -14 21 -14 15z"/>
<path d="M4180 3075 c0 -5 5 -17 10 -25 5 -8 10 -10 10 -5 0 6 -5 17 -10 25
-5 8 -10 11 -10 5z"/>
<path d="M4200 3025 c0 -5 5 -17 10 -25 5 -8 10 -10 10 -5 0 6 -5 17 -10 25
-5 8 -10 11 -10 5z"/>
<path d="M4261 2850 c0 -8 4 -24 9 -35 5 -13 9 -14 9 -5 0 8 -4 24 -9 35 -5
13 -9 14 -9 5z"/>
<path d="M4291 2734 c0 -11 3 -14 6 -6 3 7 2 16 -1 19 -3 4 -6 -2 -5 -13z"/>
<path d="M4301 2694 c0 -11 3 -14 6 -6 3 7 2 16 -1 19 -3 4 -6 -2 -5 -13z"/>
<path d="M4311 2644 c0 -11 3 -14 6 -6 3 7 2 16 -1 19 -3 4 -6 -2 -5 -13z"/>
<path d="M4321 2594 c0 -11 3 -14 6 -6 3 7 2 16 -1 19 -3 4 -6 -2 -5 -13z"/>
<path d="M4331 2534 c0 -11 3 -14 6 -6 3 7 2 16 -1 19 -3 4 -6 -2 -5 -13z"/>
<path d="M4342 2460 c0 -14 2 -19 5 -12 2 6 2 18 0 25 -3 6 -5 1 -5 -13z"/>
<path d="M4352 2350 c0 -19 2 -27 5 -17 2 9 2 25 0 35 -3 9 -5 1 -5 -18z"/>
<path d="M4341 1954 c0 -11 3 -14 6 -6 3 7 2 16 -1 19 -3 4 -6 -2 -5 -13z"/>
<path d="M4206 1415 c-9 -26 -7 -32 5 -12 6 10 9 21 6 23 -2 3 -7 -2 -11 -11z"/>
<path d="M525 992 c23 -23 313 -227 480 -337 584 -385 645 -430 746 -549 34
-41 72 -77 83 -80 41 -10 146 -18 146 -12 0 32 -169 323 -253 436 -205 275
-438 430 -782 520 -60 16 -123 23 -255 27 -118 3 -172 2 -165 -5z"/>
<path d="M1386 951 c221 -117 420 -305 570 -536 22 -33 78 -139 125 -235 l87
-175 70 148 c84 175 122 240 215 366 140 190 297 331 482 431 44 23 82 44 84
46 2 2 -385 4 -860 4 l-864 0 91 -49z m604 -116 c6 -99 21 -138 70 -178 86
-73 210 -43 266 65 9 17 18 69 21 119 l6 89 60 0 60 0 -7 -107 c-8 -125 -34
-193 -94 -257 -138 -144 -378 -103 -468 81 -23 47 -29 73 -33 165 -3 60 -4
112 -1 114 2 3 29 4 60 2 l55 -3 5 -90z"/>
<path d="M3482 989 c-35 -4 -104 -20 -153 -34 -383 -113 -617 -302 -846 -685
-50 -84 -133 -243 -133 -256 0 -4 35 -4 78 -1 l77 7 39 47 c118 143 205 210
706 540 191 126 483 328 540 373 l25 20 -135 -1 c-74 -1 -163 -5 -198 -10z"/>
<path d="M3879 833 c-13 -16 -12 -17 4 -4 9 7 17 15 17 17 0 8 -8 3 -21 -13z"/>
<path d="M3829 773 l-24 -28 28 24 c25 23 32 31 24 31 -2 0 -14 -12 -28 -27z"/>
<path d="M3705 638 l-90 -93 93 90 c85 83 97 95 89 95 -1 0 -43 -42 -92 -92z"/>
<path d="M3569 513 l-24 -28 28 24 c15 14 27 26 27 28 0 8 -8 1 -31 -24z"/>
<path d="M3495 454 l-40 -36 43 32 c36 27 49 40 40 40 -2 0 -21 -16 -43 -36z"/>
<path d="M3403 389 c-24 -17 -43 -32 -43 -35 0 -3 20 9 45 26 25 17 45 33 45
35 0 7 -2 6 -47 -26z"/>
<path d="M3294 314 c-18 -14 -18 -15 4 -4 12 6 22 13 22 15 0 8 -5 6 -26 -11z"/>
<path d="M3224 274 c-18 -14 -18 -15 4 -4 12 6 22 13 22 15 0 8 -5 6 -26 -11z"/>
</g>
</svg>
